# xmcd CD database file
#
# Track frame offsets:
#	150
#	10587
#	25985
#	52268
#	66271
#	80191
#	90108
#	108358
#	121961
#	142191
#	156913
#	172686
#	186098
#	202556
#	214803
#	225315
#	238550
#	254057
#	266522
#	282337
#	296712
#	311345
#	325977
#
# Disc length: 4550 seconds
#
# Revision: 0
# Processed by: cddbd v1.5.2PL0 Copyright (c) Steve Scherf et al.
# Submitted via: CDex 1.51
#
DISCID=4411c417
DTITLE=Louis Armstrong - The Best of the Complete RCA Victor Recordings
DYEAR=2002
DGENRE=Jazz
TTITLE0=What a Wonderful World
TTITLE1=La Vie En Rose
TTITLE2=On The Sunny Side of The Street
TTITLE3=C'est Si Bon
TTITLE4=Chloe
TTITLE5=I Still Get Jealous
TTITLE6=When Your Smiling (The Whole World Smiles With You)
TTITLE7=Sittin' In The Sun
TTITLE8=A kiss To Build A Dream On
TTITLE9=When It's Sleepy Time Down South
TTITLE10=Hello Brother
TTITLE11=Moon River
TTITLE12=Someday
TTITLE13=April in Portugal
TTITLE14=It's Been A Long, Long Time
TTITLE15=Sincerely
TTITLE16=Get Ideas
TTITLE17=Ramona
TTITLE18=Memories Of You
TTITLE19=Only You
TTITLE20=Dream A Little Dream Of Me
TTITLE21=That's My Home
TTITLE22=Keepin' Out Of Mischief Now
EXTD=YEAR: 2002
EXTT0=
EXTT1=
EXTT2=
EXTT3=
EXTT4=
EXTT5=
EXTT6=
EXTT7=
EXTT8=
EXTT9=
EXTT10=
EXTT11=
EXTT12=
EXTT13=
EXTT14=
EXTT15=
EXTT16=
EXTT17=
EXTT18=
EXTT19=
EXTT20=
EXTT21=
EXTT22=
PLAYORDER=
